#!OML:ASF C:\Vicon Data\Big\jianyuan-11\jianyuan\Session 1\male.ASF
:FULLY-SPECIFIED
:DEGREES
56
root -8.798864 15.952492 -19.222432 -10.996256 -12.028963 8.555750
lowerback 3.975514 2.407614 -3.337629 
upperback 6.661422 3.582932 -0.480155 
thorax 4.507043 1.807135 1.375166 
lowerneck -9.129503 -11.271156 -12.648896 
upperneck 22.883510 -15.781124 13.151542 
head 10.994605 -6.719998 4.745923 
rclavicle 0.000000 0.000000 
rhumerus -37.777515 -26.780142 -78.922181 
rradius 42.311547 
rwrist -5.717721 
rhand -17.130235 -0.241714 
rfingers 0.000000 
rthumb 9.109694 -30.024990 
lclavicle 0.000000 0.000000 
lhumerus -19.682620 20.851360 83.833096 
lradius 30.766516 
lwrist -23.272738 
lhand -12.115908 -9.339365 
lfingers 0.000000 
lthumb 13.945348 20.172982 
rfemur -7.621607 0.675643 30.960988 
rtibia 38.614382 
rfoot -11.503301 -6.517141 
rtoes 17.053032 
lfemur -15.215368 -2.751079 -15.051712 
ltibia 67.298191 
lfoot -8.447802 7.329630 
ltoes 1.348633 
57
root -8.819092 15.956609 -19.148946 -10.961021 -12.475719 8.576584
lowerback 3.964932 2.495021 -3.232230 
upperback 6.601258 3.694766 -0.537635 
thorax 4.453401 1.868178 1.255119 
lowerneck -9.104621 -11.238731 -12.697537 
upperneck 22.959495 -15.767104 13.310750 
head 11.036390 -6.695914 4.818936 
rclavicle 0.000000 0.000000 
rhumerus -37.665447 -26.779242 -79.086882 
rradius 42.537617 
rwrist -5.887935 
rhand -17.017926 -0.075148 
rfingers 0.000000 
rthumb 9.218049 -29.853654 
lclavicle 0.000000 0.000000 
lhumerus -20.134304 22.130118 83.162963 
lradius 29.798881 
lwrist -24.741358 
lhand -12.114283 -9.261298 
lfingers 0.000000 
lthumb 13.946850 20.250916 
rfemur -7.260545 0.972992 31.050255 
rtibia 38.479266 
rfoot -11.519190 -6.446178 
rtoes 16.540697 
lfemur -15.742219 -3.402550 -15.196701 
ltibia 66.750734 
lfoot -8.791450 7.009775 
ltoes -0.160242 
58
root -8.839157 15.959650 -19.075044 -10.963577 -12.843517 8.583252
lowerback 3.965077 2.515839 -3.168735 
upperback 6.601434 3.721507 -0.537561 
thorax 4.455737 1.883746 1.219786 
lowerneck -9.304588 -11.200375 -12.608349 
upperneck 23.101628 -15.688566 13.146780 
head 11.092022 -6.658065 4.750919 
rclavicle 0.000000 0.000000 
rhumerus -37.386109 -26.630621 -79.273172 
rradius 42.693329 
rwrist -5.858853 
rhand -16.992554 -0.085190 
rfingers 0.000000 
rthumb 9.242530 -29.862563 
lclavicle 0.000000 0.000000 
lhumerus -20.576979 23.684917 82.510527 
lradius 28.886621 
lwrist -26.146673 
lhand -12.039482 -9.188942 
lfingers 0.000000 
lthumb 14.018943 20.318279 
rfemur -6.850951 1.213340 31.136123 
rtibia 38.324247 
rfoot -11.600069 -6.399998 
rtoes 15.897501 
lfemur -16.227538 -4.143647 -15.330185 
ltibia 66.182594 
lfoot -9.233698 6.752989 
ltoes -0.432775 
59
root -8.860661 15.963432 -19.001134 -10.994365 -13.267303 8.558711
lowerback 3.983994 2.568244 -3.091617 
upperback 6.611162 3.790053 -0.516567 
thorax 4.455326 1.920568 1.197505 
lowerneck -9.353482 -11.194777 -12.506047 
upperneck 23.119699 -15.659625 12.974708 
head 11.077278 -6.654206 4.673329 
rclavicle 0.000000 0.000000 
rhumerus -37.140021 -26.423494 -79.485709 
rradius 42.808137 
rwrist -5.431905 
rhand -17.194134 -0.014668 
rfingers 0.000000 
rthumb 9.048045 -29.800613 
lclavicle 0.000000 0.000000 
lhumerus -21.057440 25.350538 81.796985 
lradius 28.011587 
lwrist -27.627023 
lhand -11.847714 -9.234035 
lfingers 0.000000 
lthumb 14.203753 20.260330 
rfemur -6.396721 1.533424 31.278876 
rtibia 38.167828 
rfoot -12.138998 -6.189896 
rtoes 17.945312 
lfemur -16.648398 -4.832725 -15.397468 
ltibia 65.581038 
lfoot -9.652838 6.493005 
ltoes -0.379497 
60
root -8.885990 15.970845 -18.926821 -10.965522 -13.753435 8.604385
lowerback 3.933766 2.644060 -3.081846 
upperback 6.568502 3.886994 -0.540464 
thorax 4.436747 1.968081 1.167968 
lowerneck -9.379506 -11.147958 -12.475066 
upperneck 23.153540 -15.605353 13.000394 
head 11.086271 -6.621523 4.687174 
rclavicle 0.000000 0.000000 
rhumerus -37.041330 -26.270619 -79.685311 
rradius 43.175141 
rwrist -5.687842 
rhand -17.013985 -0.021948 
rfingers 0.000000 
rthumb 9.221881 -29.800290 
lclavicle 0.000000 0.000000 
lhumerus -21.622142 26.852854 81.000989 
lradius 27.143529 
lwrist -29.159783 
lhand -11.786930 -9.184525 
lfingers 0.000000 
lthumb 14.262380 20.305726 
rfemur -5.988358 1.967207 31.382291 
rtibia 38.013990 
rfoot -12.377547 -6.090173 
rtoes 18.544437 
lfemur -17.073481 -5.340887 -15.489908 
ltibia 64.933343 
lfoot -9.996125 6.325960 
ltoes -3.039142 
61
root -8.905144 15.971991 -18.858465 -10.976308 -14.161852 8.774150
lowerback 3.934162 2.709978 -3.173019 
upperback 6.566281 3.975319 -0.584145 
thorax 4.428549 2.009185 1.172737 
lowerneck -9.543692 -11.103795 -12.507152 
upperneck 23.202727 -15.545853 13.056016 
head 11.136252 -6.584333 4.716440 
rclavicle 0.000000 0.000000 
rhumerus -36.846873 -26.093615 -79.857995 
rradius 43.460126 
rwrist -5.968799 
rhand -16.881761 -0.017245 
rfingers 0.000000 
rthumb 9.349423 -29.789888 
lclavicle 0.000000 0.000000 
lhumerus -22.115072 28.319654 80.285748 
lradius 26.350717 
lwrist -30.459981 
lhand -11.795304 -9.095671 
lfingers 0.000000 
lthumb 14.254270 20.395109 
rfemur -5.619154 2.319803 31.333897 
rtibia 37.856556 
rfoot -12.383805 -6.070216 
rtoes 18.296915 
lfemur -17.483727 -5.972871 -15.758850 
ltibia 64.287916 
lfoot -10.704869 6.056955 
ltoes -1.479971 
